# xmcd
#
# Track frame offsets:
#	150
#	12300
#	31425
#	49770
#	66062
#	81995
#	99462
#	109900
#	126637
#	141862
#	161815
#
# Disc length: 2385 seconds
#
# Revision: 0
# Processed by: cddbd v1.5.2PL0 Copyright (c) Steve Scherf et al.
# Submitted via: EasyCDDAExtractor 4.6.9.1
#
DISCID=9c094f0b
DTITLE=Kallick, Kathy - Call Me A Taxi
DYEAR=1996
DGENRE=Country
TTITLE0=Call Me A Taxi
TTITLE1=Thoughts Of Love And Home
TTITLE2=Griddle In The Middle
TTITLE3=True Happy Home
TTITLE4=Close By
TTITLE5=Burying Ground
TTITLE6=Once Is Enough
TTITLE7=Send Me Your Address From Heaven
TTITLE8=Old Time's Sake
TTITLE9=My Old Clinch Mountain Home
TTITLE10=Stronger Cup
EXTD=
EXTT0=
EXTT1=
EXTT2=
EXTT3=
EXTT4=
EXTT5=
EXTT6=
EXTT7=
EXTT8=
EXTT9=
EXTT10=
PLAYORDER=
